<svg width="48" height="48" viewBox="0 0 48 48" fill="none" xmlns="http://www.w3.org/2000/svg">
<g filter="url(#filter0_d_457_173)">
<g filter="url(#filter1_dd_457_173)">
<path d="M18.8085 24.1992C21.6727 24.1992 23.9947 21.8711 23.9947 18.9992C23.9947 16.1273 21.6727 13.7992 18.8085 13.7992C15.9442 13.7992 13.6223 16.1273 13.6223 18.9992C13.6223 21.8711 15.9442 24.1992 18.8085 24.1992Z" stroke="#7C3375" stroke-width="1.5" stroke-linecap="round" stroke-linejoin="round"/>
</g>
<path d="M23.9946 13.7992V20.2992C23.9946 21.3335 24.4044 22.3255 25.1339 23.0569C25.8633 23.7883 26.8527 24.1992 27.8842 24.1992C28.9158 24.1992 29.9052 23.7883 30.6346 23.0569C31.3641 22.3255 31.7739 21.3335 31.7739 20.2992V18.9992C31.7737 16.0651 30.7836 13.2174 28.9646 10.9191C27.1456 8.62075 24.6047 7.00699 21.755 6.34018C18.9053 5.67337 15.9145 5.99275 13.2688 7.24637C10.6231 8.49999 8.47812 10.6141 7.18269 13.245C5.88727 15.8759 5.51755 18.8688 6.13367 21.7371C6.74979 24.6054 8.3155 27.1804 10.5762 29.0433C12.8369 30.9063 15.6597 31.9476 18.5855 31.9981C21.5114 32.0485 24.3682 31.1051 26.6914 29.3212" stroke="#7C3375" stroke-width="1.6" stroke-linecap="round" stroke-linejoin="round"/>
</g>
<defs>
<filter id="filter0_d_457_173" x="0.0429688" y="0.199951" width="47.531" height="47.6001" filterUnits="userSpaceOnUse" color-interpolation-filters="sRGB">
<feFlood flood-opacity="0" result="BackgroundImageFix"/>
<feColorMatrix in="SourceAlpha" type="matrix" values="0 0 0 0 0 0 0 0 0 0 0 0 0 0 0 0 0 0 127 0" result="hardAlpha"/>
<feOffset dx="5" dy="5"/>
<feGaussianBlur stdDeviation="5"/>
<feColorMatrix type="matrix" values="0 0 0 0 0.486275 0 0 0 0 0.2 0 0 0 0 0.458824 0 0 0 0.4 0"/>
<feBlend mode="normal" in2="BackgroundImageFix" result="effect1_dropShadow_457_173"/>
<feBlend mode="normal" in="SourceGraphic" in2="effect1_dropShadow_457_173" result="shape"/>
</filter>
<filter id="filter1_dd_457_173" x="7.87231" y="4.04919" width="21.8723" height="28.9" filterUnits="userSpaceOnUse" color-interpolation-filters="sRGB">
<feFlood flood-opacity="0" result="BackgroundImageFix"/>
<feColorMatrix in="SourceAlpha" type="matrix" values="0 0 0 0 0 0 0 0 0 0 0 0 0 0 0 0 0 0 127 0" result="hardAlpha"/>
<feOffset dy="4"/>
<feGaussianBlur stdDeviation="2"/>
<feColorMatrix type="matrix" values="0 0 0 0 0.384314 0 0 0 0 0.584314 0 0 0 0 0.886275 0 0 0 0.08 0"/>
<feBlend mode="normal" in2="BackgroundImageFix" result="effect1_dropShadow_457_173"/>
<feColorMatrix in="SourceAlpha" type="matrix" values="0 0 0 0 0 0 0 0 0 0 0 0 0 0 0 0 0 0 127 0" result="hardAlpha"/>
<feOffset dy="-4"/>
<feGaussianBlur stdDeviation="2.5"/>
<feColorMatrix type="matrix" values="0 0 0 0 0.384314 0 0 0 0 0.584314 0 0 0 0 0.886275 0 0 0 0.08 0"/>
<feBlend mode="normal" in2="effect1_dropShadow_457_173" result="effect2_dropShadow_457_173"/>
<feBlend mode="normal" in="SourceGraphic" in2="effect2_dropShadow_457_173" result="shape"/>
</filter>
</defs>
</svg>
