<svg width="29" height="26" viewBox="0 0 29 26" fill="none" xmlns="http://www.w3.org/2000/svg">
<path d="M7.33301 9.89806L14.4515 0.999939L21.57 9.89806" stroke="#7C3375" stroke-width="1.77962" stroke-linecap="round" stroke-linejoin="round"/>
<path d="M27.7989 9.89807L24.8328 21.2871C24.6942 22.1031 24.3214 22.8349 23.7795 23.3552C23.2375 23.8754 22.5607 24.1511 21.8668 24.1343H7.03657C6.34268 24.1511 5.66585 23.8754 5.1239 23.3552C4.58195 22.8349 4.2092 22.1031 4.07053 21.2871L1.10449 9.89807H27.7989Z" stroke="#7C3375" stroke-width="1.77962" stroke-linecap="round" stroke-linejoin="round"/>
<path d="M14.4517 19.686C15.926 19.686 17.1211 18.4909 17.1211 17.0166C17.1211 15.5423 15.926 14.3471 14.4517 14.3471C12.9774 14.3471 11.7822 15.5423 11.7822 17.0166C11.7822 18.4909 12.9774 19.686 14.4517 19.686Z" stroke="#7C3375" stroke-width="1.77962" stroke-linecap="round" stroke-linejoin="round"/>
</svg>
