<svg width="29" height="26" viewBox="0 0 29 26" fill="none" xmlns="http://www.w3.org/2000/svg">
<path d="M7.33303 9.89807L14.4515 0.999947L21.57 9.89807" stroke="#858282" stroke-width="1.77962" stroke-linecap="round" stroke-linejoin="round"/>
<path d="M27.7987 9.89807L24.8327 21.2871C24.694 22.1031 24.3212 22.8349 23.7793 23.3552C23.2373 23.8754 22.5605 24.1511 21.8666 24.1343H7.03642C6.34253 24.1511 5.6657 23.8754 5.12375 23.3552C4.5818 22.8349 4.20905 22.1031 4.07038 21.2871L1.10434 9.89807H27.7987Z" stroke="#858282" stroke-width="1.77962" stroke-linecap="round" stroke-linejoin="round"/>
<path d="M14.4515 19.686C15.9258 19.686 17.121 18.4909 17.121 17.0166C17.121 15.5423 15.9258 14.3471 14.4515 14.3471C12.9772 14.3471 11.7821 15.5423 11.7821 17.0166C11.7821 18.4909 12.9772 19.686 14.4515 19.686Z" stroke="#858282" stroke-width="1.77962" stroke-linecap="round" stroke-linejoin="round"/>
</svg>
