<svg width="25" height="25" viewBox="0 0 25 25" fill="none" xmlns="http://www.w3.org/2000/svg">
<path d="M7.27972 9.73912C7.27972 8.68321 8.01832 7.6324 8.96938 7.34164C9.12621 7.29573 9.30327 7.27533 9.46515 7.28043C9.66245 7.29063 9.81927 7.39775 9.94068 7.55588C10.4719 8.24962 11.003 8.93826 11.5393 9.6269C11.7872 9.94826 11.772 10.3308 11.4887 10.6114C11.3369 10.7644 11.1801 10.9124 11.0283 11.0654C10.8108 11.2847 10.8108 11.55 11.0132 11.7846C11.2206 12.0295 11.4027 12.2947 11.6152 12.5396C12.0401 13.0242 12.5106 13.4629 13.0468 13.8301C13.0519 13.8352 13.062 13.8403 13.0671 13.8454C13.3959 14.1056 13.5527 14.0954 13.8512 13.7944C13.9928 13.6516 14.1345 13.5037 14.2761 13.3608C14.524 13.1109 14.9135 13.0956 15.1867 13.3098C15.8798 13.8556 16.5779 14.4014 17.271 14.9422C17.5694 15.1768 17.6099 15.4829 17.5239 15.8246C17.3671 16.4266 16.9927 16.8703 16.4919 17.1968C15.6724 17.7324 14.8124 17.7936 13.9422 17.3396C11.1245 15.8654 9.00479 13.6873 7.54278 10.846C7.36067 10.5043 7.27972 10.1319 7.27972 9.73912Z" stroke="#7C3375" stroke-width="1.3" stroke-miterlimit="10"/>
<path d="M12.3926 23.975C18.6845 23.975 23.7851 18.8319 23.7851 12.4875C23.7851 6.14312 18.6845 1 12.3926 1C6.10062 1 1 6.14312 1 12.4875C1 18.8319 6.10062 23.975 12.3926 23.975Z" stroke="#7C3375" stroke-width="1.3" stroke-miterlimit="10"/>
</svg>
