<svg width="90" height="90" viewBox="0 0 90 90" fill="none" xmlns="http://www.w3.org/2000/svg">
<g filter="url(#filter0_dd_360_314)">
<circle cx="45.111" cy="44.7778" r="17.7778" fill="#E7EBF0"/>
<circle cx="45.111" cy="44.7778" r="17.7778" fill="url(#paint0_linear_360_314)" fill-opacity="0.4" style="mix-blend-mode:soft-light"/>
<circle cx="45.111" cy="44.7778" r="17.5556" stroke="white" stroke-opacity="0.2" stroke-width="0.444444"/>
</g>
<g filter="url(#filter1_dd_360_314)">
<path d="M50.5943 45.2198C52.0175 43.7966 52.0175 41.4906 50.5943 40.0674C49.1711 38.6443 46.8652 38.6443 45.442 40.0674L45.0422 40.4672L44.8079 40.2328C43.3847 38.8096 41.0787 38.8096 39.6555 40.2328C38.2323 41.656 38.2323 43.962 39.6555 45.3852L44.0354 49.7661C44.3874 50.1181 44.5633 50.2942 44.7663 50.3601C44.9448 50.4182 45.1371 50.4182 45.3157 50.3602C45.5186 50.2943 45.6947 50.1183 46.0467 49.7663L50.5943 45.2198Z" fill="#7C3375"/>
<path d="M44.8851 40.6243L45.0422 40.7815L45.1993 40.6243L45.5991 40.2246C46.9355 38.8882 49.1008 38.8882 50.4372 40.2246C51.7736 41.561 51.7736 43.7262 50.4372 45.0626C50.4372 45.0626 50.4372 45.0626 50.4372 45.0627L45.8896 49.6092C45.711 49.7877 45.5863 49.9121 45.4815 50.0011C45.3786 50.0884 45.3095 50.1286 45.247 50.1489C45.1131 50.1923 44.9689 50.1923 44.835 50.1488C44.7725 50.1285 44.7034 50.0883 44.6006 50.001C44.4957 49.912 44.3711 49.7876 44.1925 49.609L39.8127 45.228L39.8127 45.228C38.4763 43.8916 38.4763 41.7263 39.8127 40.3899C41.149 39.0535 43.3143 39.0535 44.6507 40.3899L44.8851 40.6243Z" stroke="url(#paint1_linear_360_314)" stroke-opacity="0.8" stroke-width="0.444444" style="mix-blend-mode:soft-light"/>
</g>
<defs>
<filter id="filter0_dd_360_314" x="0.666584" y="0.333332" width="88.889" height="88.8889" filterUnits="userSpaceOnUse" color-interpolation-filters="sRGB">
<feFlood flood-opacity="0" result="BackgroundImageFix"/>
<feColorMatrix in="SourceAlpha" type="matrix" values="0 0 0 0 0 0 0 0 0 0 0 0 0 0 0 0 0 0 127 0" result="hardAlpha"/>
<feOffset dx="8.88889" dy="8.88889"/>
<feGaussianBlur stdDeviation="8.88889"/>
<feColorMatrix type="matrix" values="0 0 0 0 0.6512 0 0 0 0 0.66896 0 0 0 0 0.74 0 0 0 0.3 0"/>
<feBlend mode="normal" in2="BackgroundImageFix" result="effect1_dropShadow_360_314"/>
<feColorMatrix in="SourceAlpha" type="matrix" values="0 0 0 0 0 0 0 0 0 0 0 0 0 0 0 0 0 0 127 0" result="hardAlpha"/>
<feOffset dx="-8.88889" dy="-8.88889"/>
<feGaussianBlur stdDeviation="8.88889"/>
<feColorMatrix type="matrix" values="0 0 0 0 1 0 0 0 0 1 0 0 0 0 1 0 0 0 1 0"/>
<feBlend mode="normal" in2="effect1_dropShadow_360_314" result="effect2_dropShadow_360_314"/>
<feBlend mode="normal" in="SourceGraphic" in2="effect2_dropShadow_360_314" result="shape"/>
</filter>
<filter id="filter1_dd_360_314" x="25.2548" y="25.6667" width="44.1846" height="42.5147" filterUnits="userSpaceOnUse" color-interpolation-filters="sRGB">
<feFlood flood-opacity="0" result="BackgroundImageFix"/>
<feColorMatrix in="SourceAlpha" type="matrix" values="0 0 0 0 0 0 0 0 0 0 0 0 0 0 0 0 0 0 127 0" result="hardAlpha"/>
<feOffset dx="4.44444" dy="4.44444"/>
<feGaussianBlur stdDeviation="6.66667"/>
<feColorMatrix type="matrix" values="0 0 0 0 0.48776 0 0 0 0 0.199325 0 0 0 0 0.46072 0 0 0 0.4 0"/>
<feBlend mode="normal" in2="BackgroundImageFix" result="effect1_dropShadow_360_314"/>
<feColorMatrix in="SourceAlpha" type="matrix" values="0 0 0 0 0 0 0 0 0 0 0 0 0 0 0 0 0 0 127 0" result="hardAlpha"/>
<feOffset dx="-4.44444" dy="-4.44444"/>
<feGaussianBlur stdDeviation="4.44444"/>
<feColorMatrix type="matrix" values="0 0 0 0 1 0 0 0 0 1 0 0 0 0 1 0 0 0 1 0"/>
<feBlend mode="normal" in2="effect1_dropShadow_360_314" result="effect2_dropShadow_360_314"/>
<feBlend mode="normal" in="SourceGraphic" in2="effect2_dropShadow_360_314" result="shape"/>
</filter>
<linearGradient id="paint0_linear_360_314" x1="82.4268" y1="44.7778" x2="46.8712" y2="5.70187" gradientUnits="userSpaceOnUse">
<stop/>
<stop offset="1" stop-color="white"/>
</linearGradient>
<linearGradient id="paint1_linear_360_314" x1="38.8332" y1="39.2141" x2="48.2558" y2="50.6759" gradientUnits="userSpaceOnUse">
<stop stop-color="white"/>
<stop offset="1" stop-color="white" stop-opacity="0"/>
</linearGradient>
</defs>
</svg>
