<svg width="24" height="25" viewBox="0 0 24 25" fill="none" xmlns="http://www.w3.org/2000/svg">
<path d="M9.87362 0.632464C10.3268 0.225262 10.9146 0 11.5239 0C12.1332 0 12.7209 0.225262 13.1742 0.632464L22.228 8.76775C22.4854 8.99924 22.6913 9.28228 22.8322 9.59849C22.9732 9.9147 23.0461 10.257 23.0461 10.6032V22.2168C23.0461 22.8717 22.786 23.4998 22.3229 23.9628C21.8598 24.4259 21.2318 24.686 20.5769 24.686H16.4615C15.8066 24.686 15.1786 24.4259 14.7155 23.9628C14.2524 23.4998 13.9923 22.8717 13.9923 22.2168V16.4553C13.9923 16.237 13.9056 16.0276 13.7512 15.8733C13.5969 15.7189 13.3875 15.6322 13.1692 15.6322H9.87692C9.65862 15.6322 9.44927 15.7189 9.29491 15.8733C9.14056 16.0276 9.05384 16.237 9.05384 16.4553V22.2168C9.05384 22.8717 8.79369 23.4998 8.33062 23.9628C7.86755 24.4259 7.23949 24.686 6.58461 24.686H2.46923C1.81435 24.686 1.18629 24.4259 0.723221 23.9628C0.26015 23.4998 0 22.8717 0 22.2168V10.6032C0 9.9036 0.296307 9.23691 0.819784 8.76775L9.87362 0.632464ZM12.0729 1.8572C11.9218 1.72162 11.726 1.64663 11.5231 1.64663C11.3201 1.64663 11.1243 1.72162 10.9733 1.8572L1.91941 9.99249C1.83364 10.0695 1.765 10.1636 1.71793 10.2688C1.67086 10.374 1.6464 10.488 1.64615 10.6032V22.2168C1.64615 22.4351 1.73287 22.6445 1.88723 22.7988C2.04158 22.9532 2.25094 23.0399 2.46923 23.0399H6.58461C6.8029 23.0399 7.01226 22.9532 7.16661 22.7988C7.32097 22.6445 7.40769 22.4351 7.40769 22.2168V16.4553C7.40769 15.8004 7.66784 15.1723 8.13091 14.7093C8.59398 14.2462 9.22204 13.9861 9.87692 13.9861H13.1692C13.8241 13.9861 14.4522 14.2462 14.9152 14.7093C15.3783 15.1723 15.6385 15.8004 15.6385 16.4553V22.2168C15.6385 22.4351 15.7252 22.6445 15.8795 22.7988C16.0339 22.9532 16.2432 23.0399 16.4615 23.0399H20.5769C20.7952 23.0399 21.0046 22.9532 21.1589 22.7988C21.3133 22.6445 21.4 22.4351 21.4 22.2168V10.6032C21.3997 10.488 21.3753 10.374 21.3282 10.2688C21.2811 10.1636 21.2125 10.0695 21.1267 9.99249L12.0729 1.8572Z" fill="#858282"/>
</svg>
