<svg width="23" height="23" viewBox="0 0 23 23" fill="none" xmlns="http://www.w3.org/2000/svg">
<path d="M22.9996 11.5097C22.9549 17.9105 17.7943 23.0371 11.4331 22.9998C5.08679 22.9625 -0.0737764 17.7316 0.000798206 11.3681C0.0828303 4.83318 5.54169 -0.174191 11.8432 0.00464396C17.9658 0.176027 23.0518 5.26536 22.9996 11.5097ZM10.9483 16.5245C10.9707 16.4872 10.9931 16.4649 10.9931 16.4425C11.0005 15.0417 11.0006 13.6482 11.008 12.2474C11.008 12.0387 10.8961 12.0089 10.7246 12.0089C9.30025 12.0089 7.87587 12.0089 6.4515 12.0089C6.26506 12.0089 6.18303 12.0611 6.19795 12.2623C6.27252 13.6259 6.45896 14.9671 6.82437 16.286C6.88403 16.5021 6.98098 16.5543 7.18233 16.5543C8.36807 16.5468 9.56126 16.5543 10.747 16.5469C10.8141 16.5394 10.8887 16.5245 10.9483 16.5245ZM6.19795 10.9508C7.81622 10.9508 9.38974 10.9508 10.9633 10.9508C10.9782 10.8838 10.9931 10.839 10.9931 10.7943C10.9931 9.43072 10.9931 8.06711 11.0006 6.70349C11.0006 6.45759 10.8887 6.42034 10.6799 6.42034C9.7477 6.42779 8.82297 6.42034 7.89079 6.42034C6.87658 6.42034 6.86912 6.42034 6.63794 7.39648C6.36947 8.5589 6.22032 9.73623 6.19795 10.9508ZM16.5936 12.0313C15.05 12.0313 13.5585 12.0313 12.067 12.0313C12.067 13.5439 12.067 15.0342 12.067 16.5394C13.2825 16.5394 14.4757 16.5468 15.6615 16.5245C15.7584 16.5245 15.9076 16.3755 15.9299 16.2711C16.1089 15.4813 16.2953 14.684 16.4296 13.8792C16.5191 13.2831 16.534 12.6646 16.5936 12.0313ZM16.5713 10.9508C16.5191 9.46053 16.3103 8.04475 15.9299 6.65878C15.8628 6.42034 15.7211 6.42779 15.5421 6.42779C14.6249 6.42779 13.7076 6.42779 12.7903 6.42779C12.5442 6.42779 12.3056 6.42779 12.0595 6.42779C12.0595 7.97024 12.0595 9.46053 12.0595 10.9508C13.5734 10.9508 15.0574 10.9508 16.5713 10.9508ZM21.9928 12.0685C21.881 12.0313 21.8437 12.0089 21.8064 12.0089C20.479 12.0089 19.1516 12.0089 17.8241 12.0015C17.5706 12.0015 17.5631 12.1356 17.5407 12.3293C17.4811 13.0596 17.4214 13.7824 17.317 14.5052C17.2201 15.1758 17.0635 15.839 16.9292 16.5394C18.1299 16.5394 19.3156 16.5468 20.5088 16.5319C20.6058 16.5319 20.7475 16.3978 20.7847 16.301C21.1054 15.4589 21.4485 14.6244 21.702 13.7675C21.881 13.2161 21.9108 12.6274 21.9928 12.0685ZM17.0038 6.42779C17.2275 7.95533 17.4438 9.43817 17.6675 10.9508C19.0471 10.9508 20.4939 10.9508 21.9481 10.9508C21.9556 10.8688 21.963 10.8092 21.9556 10.7496C21.8512 9.28914 21.4634 7.91063 20.7624 6.62153C20.7027 6.51721 20.5088 6.44269 20.3746 6.43524C19.5543 6.42034 18.7414 6.42779 17.9211 6.42779C17.6079 6.42779 17.2872 6.42779 17.0038 6.42779ZM1.07467 12.0015C1.04484 13.2533 1.65635 15.4813 2.26787 16.3904C2.32753 16.4798 2.48413 16.5319 2.59599 16.5319C3.37903 16.5468 4.1546 16.5394 4.93764 16.5394C5.22848 16.5394 5.51932 16.5394 5.82507 16.5394C5.81016 16.4202 5.8027 16.3606 5.78779 16.301C5.44474 14.982 5.23593 13.6408 5.19865 12.2697C5.19119 12.0164 5.06441 11.994 4.87052 12.0015C4.02783 12.0089 3.18513 12.0015 2.34244 12.0015C1.93228 12.0015 1.51466 12.0015 1.07467 12.0015ZM5.76541 6.42779C4.74374 6.42779 3.70716 6.43524 2.66311 6.42034C2.40956 6.42034 2.26787 6.5023 2.18583 6.7333C1.88008 7.59021 1.52958 8.43968 1.26857 9.3115C1.11196 9.8331 1.09704 10.392 1.02247 10.9434C2.4543 10.9434 3.81156 10.9434 5.09424 10.9434C5.32542 9.43072 5.54169 7.95533 5.76541 6.42779ZM11.0006 1.03294C10.6277 1.0702 10.3219 1.10746 10.0162 1.12981C9.70295 1.15217 9.45686 1.27139 9.29279 1.55454C8.74094 2.53068 8.16672 3.49192 7.62232 4.47551C7.46571 4.75866 7.36877 5.07908 7.22708 5.43675C8.47247 5.43675 9.63583 5.4442 10.7917 5.42184C10.8663 5.42184 10.9856 5.22811 10.9931 5.13124C11.008 4.38609 11.0006 3.6484 11.0006 2.90326C11.0006 2.30714 11.0006 1.70357 11.0006 1.03294ZM10.9707 17.5751C9.73278 17.5751 8.50976 17.5751 7.28674 17.5751C7.28674 17.6273 7.27928 17.672 7.28674 17.7018C7.81622 19.125 8.53213 20.444 9.46431 21.6436C9.51652 21.7181 9.61346 21.7852 9.70295 21.8001C10.1131 21.8597 10.5307 21.9044 10.9707 21.9566C10.9707 20.4812 10.9707 19.058 10.9707 17.5751ZM12.0521 1.04039C12.0521 2.53813 12.0521 3.96881 12.0521 5.41439C13.2005 5.41439 14.334 5.41439 15.4825 5.41439C15.475 5.33988 15.475 5.28772 15.4601 5.24301C14.9232 3.82723 14.2073 2.50088 13.2676 1.3012C13.2154 1.22668 13.1185 1.15217 13.0364 1.14471C12.7232 1.10001 12.4026 1.0702 12.0521 1.04039ZM12.0446 21.9417C12.2609 21.9268 12.4324 21.8895 12.6039 21.897C12.9842 21.9044 13.2676 21.7778 13.4615 21.435C14.0208 20.4514 14.6025 19.4678 15.1544 18.4768C15.3035 18.2011 15.393 17.8956 15.5272 17.5751C14.334 17.5751 13.2005 17.5751 12.0446 17.5751C12.0446 19.0356 12.0446 20.4663 12.0446 21.9417ZM14.8486 1.5769C15.4079 2.79894 15.9598 4.03588 16.5414 5.25791C16.5862 5.35478 16.7726 5.4293 16.8919 5.4293C17.8092 5.4442 18.7265 5.43675 19.6437 5.43675C19.7482 5.43675 19.8526 5.42184 20.0166 5.40694C18.6444 3.55153 16.9292 2.28479 14.8486 1.5769ZM14.7591 21.3977C16.9143 20.6973 18.6519 19.4455 20.0315 17.5528C18.8905 17.5528 17.839 17.5453 16.7801 17.5602C16.6906 17.5602 16.5564 17.6646 16.5191 17.754C16.0716 19.0356 15.475 20.2353 14.7591 21.3977ZM2.97632 5.4442C4.0502 5.4442 5.01221 5.45165 5.97422 5.4293C6.07117 5.4293 6.19795 5.27281 6.25015 5.16104C6.63794 4.33393 7.00335 3.49937 7.39114 2.67226C7.54775 2.3444 7.75656 2.03889 7.98774 1.63651C5.90711 2.41146 4.2963 3.6484 2.97632 5.4442ZM7.91316 21.3158C7.4508 20.3843 6.99589 19.4902 6.5559 18.596C6.39184 18.2681 6.35455 17.7763 6.101 17.6199C5.82507 17.4485 5.35525 17.5602 4.97492 17.5602C4.34104 17.5602 3.6997 17.5602 2.97632 17.5602C4.2963 19.3411 5.90711 20.5706 7.91316 21.3158Z" fill="#7C3375"/>
</svg>
