<svg width="26" height="24" viewBox="0 0 26 24" fill="none" xmlns="http://www.w3.org/2000/svg">
<path d="M12.6468 23.5174C12.4748 23.5168 12.3077 23.4566 12.1718 23.3462C7.84218 19.8264 4.85971 16.7954 2.77277 13.8051C0.109578 9.98379 -0.497817 6.45578 0.966159 3.31886C2.00963 1.0782 5.00767 -0.755062 8.51187 0.312305C10.1826 0.817258 11.6403 1.90014 12.6468 3.38404C13.6533 1.90014 15.111 0.817258 16.7818 0.312305C20.2782 -0.738766 23.284 1.0782 24.3275 3.31886C25.7915 6.45578 25.1841 9.98379 22.5209 13.8051C20.4339 16.7954 17.4515 19.8264 13.1218 23.3462C12.9859 23.4566 12.8189 23.5168 12.6468 23.5174ZM6.51837 1.6404C5.68457 1.60645 4.85767 1.81073 4.12644 2.23132C3.39521 2.65192 2.78725 3.27294 2.36784 4.02772C1.16084 6.61873 1.70593 9.50307 4.03428 12.8355C6.50869 16.175 9.40615 19.1464 12.6468 21.6678C15.887 19.1489 18.7844 16.1803 21.2594 12.8437C23.5955 9.50307 24.1328 6.61873 22.9258 4.03587C22.1471 2.4063 19.811 1.11079 17.2101 1.87669C16.3761 2.13457 15.603 2.57229 14.9404 3.16167C14.2779 3.75105 13.7407 4.47904 13.3632 5.29878C13.3046 5.44822 13.2048 5.57604 13.0765 5.66599C12.9483 5.75595 12.7973 5.80398 12.6429 5.80398C12.4885 5.80398 12.3376 5.75595 12.2094 5.66599C12.0811 5.57604 11.9813 5.44822 11.9226 5.29878C11.548 4.47698 11.0117 3.74729 10.3488 3.15755C9.68582 2.5678 8.91124 2.13131 8.07579 1.87669C7.56961 1.72286 7.04546 1.64334 6.51837 1.6404Z" fill="#858282"/>
</svg>
