<svg width="20" height="24" viewBox="0 0 20 24" fill="none" xmlns="http://www.w3.org/2000/svg">
<path d="M9.80867 13C11.4611 13 12.8007 11.6569 12.8007 10C12.8007 8.34315 11.4611 7 9.80867 7C8.15622 7 6.81665 8.34315 6.81665 10C6.81665 11.6569 8.15622 13 9.80867 13Z" stroke="#7C3375" stroke-width="1.5" stroke-linecap="round" stroke-linejoin="round"/>
<path d="M18.7847 10C18.7847 17 9.80859 23 9.80859 23C9.80859 23 0.83252 17 0.83252 10C0.83252 7.61305 1.77821 5.32387 3.46155 3.63604C5.14489 1.94821 7.42799 1 9.80859 1C12.1892 1 14.4723 1.94821 16.1556 3.63604C17.839 5.32387 18.7847 7.61305 18.7847 10Z" stroke="#7C3375" stroke-width="1.5" stroke-linecap="round" stroke-linejoin="round"/>
</svg>
