<svg width="41" height="37" viewBox="0 0 41 37" fill="none" xmlns="http://www.w3.org/2000/svg">
<path d="M9.86286 28.36C9.7299 28.3458 9.60394 28.3316 9.47098 28.3245C8.4563 28.2392 7.4766 28.0047 6.54589 27.5783C4.02668 26.4271 2.29822 24.5297 1.38151 21.879C1.12959 21.1541 0.982634 20.4008 0.926652 19.6333C0.744709 17.2385 1.33952 15.0639 2.74608 13.131C4.04068 11.3686 5.74115 10.2031 7.83349 9.61329C8.72921 9.36457 9.64592 9.25087 10.5696 9.2864C12.683 9.36457 14.5654 10.0823 16.2099 11.4325C16.8677 11.9726 17.4415 12.598 17.9313 13.3015C17.9453 13.3157 17.9523 13.3371 17.9663 13.3584C17.9313 13.3584 17.9033 13.3655 17.8823 13.3655C17.3715 13.3655 16.8607 13.3655 16.3498 13.3655C16.2868 13.3655 16.2519 13.3442 16.2099 13.3015C15.2302 12.2142 14.0405 11.4396 12.655 11.0062C11.7243 10.7148 10.7726 10.6011 9.79988 10.6579C8.14139 10.7574 6.64386 11.3188 5.33527 12.3635C3.79575 13.5929 2.80906 15.1776 2.40319 17.1319C2.24224 17.8994 2.19326 18.674 2.25624 19.4486C2.43118 21.6089 3.30591 23.4211 4.88041 24.885C5.96508 25.887 7.23168 26.5337 8.67323 26.8321C9.35201 26.9743 10.0448 27.024 10.7376 26.9814C12.4031 26.8819 13.8936 26.3134 15.2092 25.2758C15.5661 24.9987 15.902 24.686 16.1959 24.3449C16.2449 24.2952 16.2868 24.2667 16.3568 24.2738C16.8887 24.2738 17.4135 24.2738 17.9593 24.2738C17.9453 24.3023 17.9313 24.3236 17.9173 24.3449C16.7557 25.9865 15.2372 27.1448 13.3688 27.827C12.683 28.0758 11.9832 28.2321 11.2554 28.3032C11.0525 28.3245 10.8565 28.3387 10.6536 28.36C10.4017 28.36 10.1288 28.36 9.86286 28.36Z" fill="#7C3375"/>
<g filter="url(#filter0_dd_425_58)">
<path d="M26 18.3207C25.0564 19.324 24.1075 20.3329 23.1691 21.3306C22.928 21.0742 22.6973 20.8289 22.4561 20.5725C22.9856 20.0096 23.5256 19.4355 24.0708 18.8558C21.696 18.8558 19.3317 18.8558 16.9621 18.8558C16.9621 18.4991 16.9621 18.1479 16.9621 17.7856C19.3317 17.7856 21.696 17.7856 24.0656 17.7856C23.5203 17.206 22.9804 16.6319 22.4457 16.0633C22.692 15.8014 22.9227 15.5561 23.1639 15.3053C23.1796 15.322 23.2006 15.3387 23.2215 15.361C24.1285 16.3253 25.0302 17.284 25.9371 18.2483C25.9581 18.2706 25.979 18.2873 26 18.304C26 18.3096 26 18.3151 26 18.3207Z" fill="#7C3375"/>
</g>
<defs>
<filter id="filter0_dd_425_58" x="1.9621" y="0.305298" width="39.0379" height="36.0253" filterUnits="userSpaceOnUse" color-interpolation-filters="sRGB">
<feFlood flood-opacity="0" result="BackgroundImageFix"/>
<feColorMatrix in="SourceAlpha" type="matrix" values="0 0 0 0 0 0 0 0 0 0 0 0 0 0 0 0 0 0 127 0" result="hardAlpha"/>
<feOffset dx="5" dy="5"/>
<feGaussianBlur stdDeviation="5"/>
<feColorMatrix type="matrix" values="0 0 0 0 0.486275 0 0 0 0 0.2 0 0 0 0 0.458824 0 0 0 0.45 0"/>
<feBlend mode="normal" in2="BackgroundImageFix" result="effect1_dropShadow_425_58"/>
<feColorMatrix in="SourceAlpha" type="matrix" values="0 0 0 0 0 0 0 0 0 0 0 0 0 0 0 0 0 0 127 0" result="hardAlpha"/>
<feOffset dx="-5" dy="-5"/>
<feGaussianBlur stdDeviation="5"/>
<feColorMatrix type="matrix" values="0 0 0 0 1 0 0 0 0 1 0 0 0 0 1 0 0 0 1 0"/>
<feBlend mode="normal" in2="effect1_dropShadow_425_58" result="effect2_dropShadow_425_58"/>
<feBlend mode="normal" in="SourceGraphic" in2="effect2_dropShadow_425_58" result="shape"/>
</filter>
</defs>
</svg>
