<svg width="24" height="23" viewBox="0 0 24 23" fill="none" xmlns="http://www.w3.org/2000/svg">
<path d="M23.7736 11.5097C23.729 17.9105 18.5822 23.0371 12.2379 22.9998C5.90846 22.9625 0.761625 17.7316 0.836001 11.3681C0.917815 4.83318 6.36216 -0.174191 12.647 0.00464396C18.7532 0.176027 23.8257 5.26536 23.7736 11.5097ZM11.7544 16.5245C11.7768 16.4872 11.7991 16.4649 11.7991 16.4425C11.8065 15.0417 11.8065 13.6482 11.8139 12.2474C11.8139 12.0387 11.7024 12.0089 11.5313 12.0089C10.1107 12.0089 8.69014 12.0089 7.26955 12.0089C7.08361 12.0089 7.00179 12.0611 7.01667 12.2623C7.09105 13.6259 7.27699 14.9671 7.64143 16.286C7.70093 16.5021 7.79762 16.5543 7.99844 16.5543C9.18102 16.5468 10.371 16.5543 11.5536 16.5469C11.6206 16.5394 11.6949 16.5245 11.7544 16.5245ZM7.01667 10.9508C8.63063 10.9508 10.2 10.9508 11.7693 10.9508C11.7842 10.8838 11.7991 10.839 11.7991 10.7943C11.7991 9.43072 11.7991 8.06711 11.8065 6.70349C11.8065 6.45759 11.6949 6.42034 11.4867 6.42034C10.557 6.42779 9.63471 6.42034 8.70501 6.42034C7.69349 6.42034 7.68606 6.42034 7.45549 7.39648C7.18773 8.5589 7.03898 9.73623 7.01667 10.9508ZM17.3847 12.0313C15.8451 12.0313 14.3576 12.0313 12.8701 12.0313C12.8701 13.5439 12.8701 15.0342 12.8701 16.5394C14.0824 16.5394 15.2724 16.5468 16.455 16.5245C16.5517 16.5245 16.7005 16.3755 16.7228 16.2711C16.9013 15.4813 17.0872 14.684 17.2211 13.8792C17.3103 13.2831 17.3252 12.6646 17.3847 12.0313ZM17.3624 10.9508C17.3103 9.46053 17.1021 8.04475 16.7228 6.65878C16.6558 6.42034 16.5145 6.42779 16.336 6.42779C15.4212 6.42779 14.5064 6.42779 13.5915 6.42779C13.3461 6.42779 13.1081 6.42779 12.8626 6.42779C12.8626 7.97024 12.8626 9.46053 12.8626 10.9508C14.3725 10.9508 15.8526 10.9508 17.3624 10.9508ZM22.7696 12.0685C22.658 12.0313 22.6208 12.0089 22.5836 12.0089C21.2597 12.0089 19.9358 12.0089 18.6119 12.0015C18.359 12.0015 18.3516 12.1356 18.3293 12.3293C18.2698 13.0596 18.2103 13.7824 18.1062 14.5052C18.0095 15.1758 17.8533 15.839 17.7194 16.5394C18.9169 16.5394 20.0995 16.5468 21.2895 16.5319C21.3862 16.5319 21.5275 16.3978 21.5647 16.301C21.8845 15.4589 22.2266 14.6244 22.4795 13.7675C22.658 13.2161 22.6877 12.6274 22.7696 12.0685ZM17.7938 6.42779C18.0169 7.95533 18.2326 9.43817 18.4557 10.9508C19.8317 10.9508 21.2746 10.9508 22.7249 10.9508C22.7324 10.8688 22.7398 10.8092 22.7324 10.7496C22.6282 9.28914 22.2415 7.91063 21.5424 6.62153C21.4829 6.51721 21.2895 6.44269 21.1556 6.43524C20.3375 6.42034 19.5268 6.42779 18.7086 6.42779C18.3962 6.42779 18.0764 6.42779 17.7938 6.42779ZM1.90702 12.0015C1.87727 13.2533 2.48715 15.4813 3.09704 16.3904C3.15654 16.4798 3.31273 16.5319 3.4243 16.5319C4.20525 16.5468 4.97876 16.5394 5.75971 16.5394C6.04978 16.5394 6.33984 16.5394 6.64479 16.5394C6.62991 16.4202 6.62247 16.3606 6.6076 16.301C6.26547 14.982 6.05721 13.6408 6.02003 12.2697C6.01259 12.0164 5.88615 11.994 5.69277 12.0015C4.85232 12.0089 4.01187 12.0015 3.17142 12.0015C2.76235 12.0015 2.34584 12.0015 1.90702 12.0015ZM6.58529 6.42779C5.56633 6.42779 4.5325 6.43524 3.49123 6.42034C3.23835 6.42034 3.09704 6.5023 3.01523 6.7333C2.71028 7.59021 2.36071 8.43968 2.1004 9.3115C1.94421 9.8331 1.92933 10.392 1.85496 10.9434C3.28298 10.9434 4.63663 10.9434 5.9159 10.9434C6.14647 9.43072 6.36216 7.95533 6.58529 6.42779ZM11.8065 1.03294C11.4346 1.0702 11.1297 1.10746 10.8247 1.12981C10.5124 1.15217 10.2669 1.27139 10.1033 1.55454C9.5529 2.53068 8.9802 3.49192 8.43726 4.47551C8.28107 4.75866 8.18438 5.07908 8.04306 5.43675C9.28515 5.43675 10.4454 5.4442 11.5982 5.42184C11.6726 5.42184 11.7916 5.22811 11.7991 5.13124C11.8139 4.38609 11.8065 3.6484 11.8065 2.90326C11.8065 2.30714 11.8065 1.70357 11.8065 1.03294ZM11.7768 17.5751C10.5421 17.5751 9.32233 17.5751 8.10256 17.5751C8.10256 17.6273 8.09512 17.672 8.10256 17.7018C8.63063 19.125 9.34465 20.444 10.2744 21.6436C10.3264 21.7181 10.4231 21.7852 10.5124 21.8001C10.9214 21.8597 11.3379 21.9044 11.7768 21.9566C11.7768 20.4812 11.7768 19.058 11.7768 17.5751ZM12.8552 1.04039C12.8552 2.53813 12.8552 3.96881 12.8552 5.41439C14.0006 5.41439 15.1311 5.41439 16.2765 5.41439C16.2691 5.33988 16.2691 5.28772 16.2542 5.24301C15.7187 3.82723 15.0047 2.50088 14.0675 1.3012C14.0155 1.22668 13.9188 1.15217 13.837 1.14471C13.5246 1.10001 13.2048 1.0702 12.8552 1.04039ZM12.8478 21.9417C13.0635 21.9268 13.2345 21.8895 13.4056 21.897C13.7849 21.9044 14.0675 21.7778 14.2609 21.435C14.8187 20.4514 15.3989 19.4678 15.9493 18.4768C16.098 18.2011 16.1873 17.8956 16.3211 17.5751C15.1311 17.5751 14.0006 17.5751 12.8478 17.5751C12.8478 19.0356 12.8478 20.4663 12.8478 21.9417ZM15.6443 1.5769C16.2021 2.79894 16.7525 4.03588 17.3327 5.25791C17.3773 5.35478 17.5632 5.4293 17.6822 5.4293C18.5971 5.4442 19.5119 5.43675 20.4267 5.43675C20.5308 5.43675 20.635 5.42184 20.7986 5.40694C19.4301 3.55153 17.7194 2.28479 15.6443 1.5769ZM15.5551 21.3977C17.7045 20.6973 19.4375 19.4455 20.8135 17.5528C19.6755 17.5528 18.6268 17.5453 17.5707 17.5602C17.4814 17.5602 17.3475 17.6646 17.3103 17.754C16.8641 19.0356 16.2691 20.2353 15.5551 21.3977ZM3.80361 5.4442C4.87463 5.4442 5.83409 5.45165 6.79354 5.4293C6.89023 5.4293 7.01667 5.27281 7.06873 5.16104C7.45549 4.33393 7.81993 3.49937 8.20669 2.67226C8.36288 2.3444 8.57113 2.03889 8.8017 1.63651C6.7266 2.41146 5.12007 3.6484 3.80361 5.4442ZM8.72732 21.3158C8.26619 20.3843 7.8125 19.4902 7.37368 18.596C7.21005 18.2681 7.17286 17.7763 6.91998 17.6199C6.64479 17.4485 6.17622 17.5602 5.7969 17.5602C5.1647 17.5602 4.52506 17.5602 3.80361 17.5602C5.12007 19.3411 6.7266 20.5706 8.72732 21.3158Z" fill="#7C3375"/>
</svg>
