<svg width="31" height="28" viewBox="0 0 31 28" fill="none" xmlns="http://www.w3.org/2000/svg">
<path d="M9.43066 10.8965C9.43066 9.70072 10.3416 8.51077 11.5145 8.18151C11.7079 8.12952 11.9263 8.10642 12.1259 8.11219C12.3692 8.12375 12.5626 8.24505 12.7124 8.42412C13.3675 9.20972 14.0226 9.98955 14.6839 10.7694C14.9896 11.1333 14.9709 11.5665 14.6215 11.8842C14.4343 12.0575 14.2409 12.225 14.0537 12.3983C13.7855 12.6467 13.7855 12.9471 14.035 13.2128C14.2908 13.4901 14.5154 13.7905 14.7775 14.0677C15.3015 14.6165 15.8818 15.1133 16.5431 15.5292C16.5493 15.535 16.5618 15.5407 16.5681 15.5465C16.9736 15.8411 17.167 15.8296 17.5351 15.4888C17.7098 15.327 17.8845 15.1595 18.0592 14.9978C18.3649 14.7147 18.8453 14.6974 19.1822 14.94C20.0369 15.5581 20.8979 16.1762 21.7526 16.7885C22.1207 17.0542 22.1707 17.4008 22.0646 17.7878C21.8712 18.4694 21.4095 18.972 20.7918 19.3417C19.7811 19.9482 18.7205 20.0175 17.6474 19.5034C14.1723 17.834 11.5582 15.3674 9.75509 12.1499C9.53049 11.7629 9.43066 11.3412 9.43066 10.8965Z" stroke="#7C3375" stroke-width="1.5" stroke-miterlimit="10"/>
<path d="M15.736 27.0173C23.4957 27.0173 29.7861 21.1932 29.7861 14.0087C29.7861 6.82418 23.4957 1 15.736 1C7.97627 1 1.68579 6.82418 1.68579 14.0087C1.68579 21.1932 7.97627 27.0173 15.736 27.0173Z" stroke="#7C3375" stroke-width="1.5" stroke-miterlimit="10"/>
</svg>
