<svg width="24" height="25" viewBox="0 0 24 25" fill="none" xmlns="http://www.w3.org/2000/svg">
<path d="M0.831907 8.62249C1.35872 6.95063 2.22414 5.41243 3.37118 4.10918C3.46598 4.0015 3.58979 3.9252 3.72687 3.88998C3.86395 3.85475 4.00813 3.8622 4.14108 3.91136L6.87568 4.91659C7.07036 4.98804 7.27782 5.01512 7.4837 4.99597C7.68957 4.97681 7.88893 4.91188 8.06795 4.80566C8.24698 4.69944 8.40139 4.55448 8.52049 4.38083C8.63959 4.20718 8.72052 4.00899 8.75768 3.79999L9.27808 0.860475C9.30328 0.717381 9.36935 0.585232 9.46786 0.480851C9.56637 0.37647 9.69288 0.304579 9.83127 0.27433C11.5021 -0.0914435 13.2291 -0.0914435 14.8998 0.27433C15.0382 0.304579 15.1647 0.37647 15.2632 0.480851C15.3618 0.585232 15.4278 0.717381 15.453 0.860475L15.9749 3.79999C16.012 4.00899 16.0929 4.20718 16.212 4.38083C16.3311 4.55448 16.4855 4.69944 16.6646 4.80566C16.8436 4.91188 17.043 4.97681 17.2488 4.99597C17.4547 5.01512 17.6622 4.98804 17.8568 4.91659L20.5929 3.91136C20.7258 3.86269 20.8697 3.85564 21.0065 3.89112C21.1433 3.9266 21.2668 4.003 21.3614 4.11064C22.5077 5.4136 23.3726 6.95128 23.8992 8.62249C23.9427 8.76054 23.9453 8.90873 23.9067 9.0483C23.8681 9.18787 23.7901 9.31252 23.6825 9.40646L21.4654 11.3407C21.3079 11.4783 21.1814 11.6494 21.0947 11.8422C21.0079 12.035 20.963 12.2449 20.963 12.4573C20.963 12.6698 21.0079 12.8797 21.0947 13.0725C21.1814 13.2653 21.3079 13.4364 21.4654 13.5739L23.6825 15.5082C23.7901 15.6022 23.8681 15.7268 23.9067 15.8664C23.9453 16.0059 23.9427 16.1541 23.8992 16.2922C23.3728 17.9639 22.5079 19.5021 21.3614 20.8055C21.2665 20.9132 21.1427 20.9895 21.0057 21.0247C20.8686 21.0599 20.7244 21.0525 20.5914 21.0033L17.8568 19.9981C17.6622 19.9266 17.4547 19.8996 17.2488 19.9187C17.043 19.9379 16.8436 20.0028 16.6646 20.109C16.4855 20.2152 16.3311 20.3602 16.212 20.5338C16.0929 20.7075 16.012 20.9057 15.9749 21.1147L15.4516 24.0557C15.4262 24.1983 15.3603 24.33 15.2621 24.4341C15.1638 24.5382 15.0378 24.6099 14.8998 24.6403C13.2291 25.0062 11.502 25.0062 9.83127 24.6403C9.69288 24.6101 9.56637 24.5382 9.46786 24.4338C9.36935 24.3294 9.30328 24.1973 9.27808 24.0542L8.75768 21.1147C8.72052 20.9057 8.63959 20.7075 8.52049 20.5338C8.40139 20.3602 8.24698 20.2152 8.06795 20.109C7.88893 20.0028 7.68957 19.9379 7.4837 19.9187C7.27782 19.8996 7.07036 19.9266 6.87568 19.9981L4.13966 21.0033C4.00675 21.052 3.86279 21.059 3.72599 21.0236C3.58919 20.9881 3.4657 20.9117 3.37118 20.804C2.22479 19.5011 1.35986 17.9634 0.833332 16.2922C0.78987 16.1541 0.787264 16.0059 0.825845 15.8664C0.864427 15.7268 0.942457 15.6022 1.05005 15.5082L3.2671 13.5739C3.42459 13.4364 3.5511 13.2653 3.63787 13.0725C3.72463 12.8797 3.76956 12.6698 3.76956 12.4573C3.76956 12.2449 3.72463 12.035 3.63787 11.8422C3.5511 11.6494 3.42459 11.4783 3.2671 11.3407L1.05005 9.40646C0.942457 9.31252 0.864427 9.18787 0.825845 9.0483C0.787264 8.90873 0.78987 8.76054 0.833332 8.62249H0.831907ZM2.34463 8.6137L4.18956 10.2227C4.50504 10.4978 4.75849 10.8402 4.93231 11.2261C5.10614 11.612 5.19618 12.0321 5.19618 12.4573C5.19618 12.8826 5.10614 13.3027 4.93231 13.6886C4.75849 14.0745 4.50504 14.4169 4.18956 14.692L2.34463 16.301C2.76095 17.4469 3.36262 18.5137 4.1197 19.4544L6.3952 18.6192C6.78465 18.4763 7.19969 18.4222 7.61152 18.4606C8.02335 18.499 8.42213 18.629 8.7802 18.8416C9.13828 19.0541 9.44708 19.3442 9.6852 19.6917C9.92332 20.0392 10.0851 20.4357 10.1592 20.8539L10.5941 23.2981C11.767 23.499 12.9641 23.499 14.1371 23.2981L14.5719 20.8509C14.6462 20.4329 14.8081 20.0365 15.0463 19.6892C15.2845 19.3419 15.5933 19.052 15.9514 18.8396C16.3094 18.6271 16.7081 18.4973 17.1199 18.459C17.5316 18.4207 17.9465 18.4748 18.3359 18.6177L20.6128 19.4544C21.3713 18.5122 21.9712 17.4464 22.3879 16.301L20.543 14.692C20.2271 14.4172 19.9732 14.0749 19.7991 13.6889C19.625 13.303 19.5348 12.8827 19.5348 12.4573C19.5348 12.0319 19.625 11.6117 19.7991 11.2257C19.9732 10.8398 20.2271 10.4975 20.543 10.2227L22.3879 8.6137C21.9713 7.46825 21.3713 6.40242 20.6128 5.46024L18.3373 6.2955C17.948 6.43839 17.533 6.49256 17.1213 6.45425C16.7096 6.41594 16.3108 6.28607 15.9528 6.07363C15.5947 5.86119 15.2859 5.57128 15.0477 5.22397C14.8095 4.87667 14.6477 4.48028 14.5733 4.06229L14.1371 1.6166C12.9641 1.41561 11.767 1.41561 10.5941 1.6166L10.1606 4.06229C10.0865 4.48041 9.92474 4.87696 9.68663 5.22444C9.44851 5.57191 9.1397 5.862 8.78163 6.07459C8.42355 6.28718 8.02478 6.41718 7.61294 6.45558C7.20111 6.49398 6.78608 6.43985 6.39663 6.29696L4.1197 5.46024C3.36124 6.40244 2.76129 7.46826 2.34463 8.6137ZM8.80188 12.4573C8.80188 11.4857 9.17741 10.5539 9.84586 9.86692C10.5143 9.1799 11.4209 8.79394 12.3663 8.79394C13.3116 8.79394 14.2182 9.1799 14.8867 9.86692C15.5551 10.5539 15.9307 11.4857 15.9307 12.4573C15.9307 13.4289 15.5551 14.3607 14.8867 15.0478C14.2182 15.7348 13.3116 16.1207 12.3663 16.1207C11.4209 16.1207 10.5143 15.7348 9.84586 15.0478C9.17741 14.3607 8.80188 13.4289 8.80188 12.4573ZM10.2276 12.4573C10.2276 13.0403 10.453 13.5994 10.854 14.0116C11.2551 14.4238 11.7991 14.6554 12.3663 14.6554C12.9335 14.6554 13.4774 14.4238 13.8785 14.0116C14.2796 13.5994 14.5049 13.0403 14.5049 12.4573C14.5049 11.8744 14.2796 11.3153 13.8785 10.9031C13.4774 10.4909 12.9335 10.2593 12.3663 10.2593C11.7991 10.2593 11.2551 10.4909 10.854 10.9031C10.453 11.3153 10.2276 11.8744 10.2276 12.4573Z" fill="#858282"/>
</svg>
