<svg width="24" height="25" viewBox="0 0 24 25" fill="none" xmlns="http://www.w3.org/2000/svg">
<path d="M0.832029 8.62249C1.35884 6.95063 2.22426 5.41243 3.3713 4.10918C3.46611 4.0015 3.58991 3.9252 3.72699 3.88998C3.86407 3.85475 4.00825 3.8622 4.14121 3.91136L6.8758 4.91659C7.07048 4.98804 7.27794 5.01512 7.48382 4.99597C7.68969 4.97681 7.88905 4.91188 8.06808 4.80566C8.2471 4.69944 8.40152 4.55448 8.52061 4.38083C8.63971 4.20718 8.72064 4.00899 8.7578 3.79999L9.2782 0.860475C9.3034 0.717381 9.36947 0.585232 9.46798 0.480851C9.56649 0.37647 9.693 0.304579 9.8314 0.27433C11.5022 -0.0914435 13.2292 -0.0914435 14.9 0.27433C15.0383 0.304579 15.1649 0.37647 15.2634 0.480851C15.3619 0.585232 15.4279 0.717381 15.4531 0.860475L15.975 3.79999C16.0121 4.00899 16.0931 4.20718 16.2122 4.38083C16.3313 4.55448 16.4857 4.69944 16.6647 4.80566C16.8437 4.91188 17.0431 4.97681 17.249 4.99597C17.4548 5.01512 17.6623 4.98804 17.857 4.91659L20.593 3.91136C20.7259 3.86269 20.8699 3.85564 21.0067 3.89112C21.1435 3.9266 21.2669 4.003 21.3615 4.11064C22.5078 5.4136 23.3727 6.95128 23.8993 8.62249C23.9428 8.76054 23.9454 8.90873 23.9068 9.0483C23.8682 9.18787 23.7902 9.31252 23.6826 9.40646L21.4656 11.3407C21.3081 11.4783 21.1815 11.6494 21.0948 11.8422C21.008 12.035 20.9631 12.2449 20.9631 12.4573C20.9631 12.6698 21.008 12.8797 21.0948 13.0725C21.1815 13.2653 21.3081 13.4364 21.4656 13.5739L23.6826 15.5082C23.7902 15.6022 23.8682 15.7268 23.9068 15.8664C23.9454 16.0059 23.9428 16.1541 23.8993 16.2922C23.3729 17.9639 22.508 19.5021 21.3615 20.8055C21.2667 20.9132 21.1429 20.9895 21.0058 21.0247C20.8687 21.0599 20.7245 21.0525 20.5916 21.0033L17.857 19.9981C17.6623 19.9266 17.4548 19.8996 17.249 19.9187C17.0431 19.9379 16.8437 20.0028 16.6647 20.109C16.4857 20.2152 16.3313 20.3602 16.2122 20.5338C16.0931 20.7075 16.0121 20.9057 15.975 21.1147L15.4517 24.0557C15.4264 24.1983 15.3604 24.33 15.2622 24.4341C15.164 24.5382 15.0379 24.6099 14.9 24.6403C13.2292 25.0062 11.5022 25.0062 9.8314 24.6403C9.693 24.6101 9.56649 24.5382 9.46798 24.4338C9.36947 24.3294 9.3034 24.1973 9.2782 24.0542L8.7578 21.1147C8.72064 20.9057 8.63971 20.7075 8.52061 20.5338C8.40152 20.3602 8.2471 20.2152 8.06808 20.109C7.88905 20.0028 7.68969 19.9379 7.48382 19.9187C7.27794 19.8996 7.07048 19.9266 6.8758 19.9981L4.13978 21.0033C4.00688 21.052 3.86291 21.059 3.72611 21.0236C3.58931 20.9881 3.46583 20.9117 3.3713 20.804C2.22491 19.5011 1.35999 17.9634 0.833454 16.2922C0.789992 16.1541 0.787386 16.0059 0.825967 15.8664C0.864549 15.7268 0.94258 15.6022 1.05017 15.5082L3.26722 13.5739C3.42471 13.4364 3.55123 13.2653 3.63799 13.0725C3.72475 12.8797 3.76969 12.6698 3.76969 12.4573C3.76969 12.2449 3.72475 12.035 3.63799 11.8422C3.55123 11.6494 3.42471 11.4783 3.26722 11.3407L1.05017 9.40646C0.94258 9.31252 0.864549 9.18787 0.825967 9.0483C0.787386 8.90873 0.789992 8.76054 0.833454 8.62249H0.832029ZM2.34475 8.6137L4.18968 10.2227C4.50516 10.4978 4.75861 10.8402 4.93244 11.2261C5.10626 11.612 5.1963 12.0321 5.1963 12.4573C5.1963 12.8826 5.10626 13.3027 4.93244 13.6886C4.75861 14.0745 4.50516 14.4169 4.18968 14.692L2.34475 16.301C2.76108 17.4469 3.36274 18.5137 4.11982 19.4544L6.39532 18.6192C6.78478 18.4763 7.19981 18.4222 7.61164 18.4606C8.02347 18.499 8.42225 18.629 8.78033 18.8416C9.1384 19.0541 9.4472 19.3442 9.68532 19.6917C9.92344 20.0392 10.0852 20.4357 10.1593 20.8539L10.5942 23.2981C11.7671 23.499 12.9643 23.499 14.1372 23.2981L14.572 20.8509C14.6463 20.4329 14.8082 20.0365 15.0464 19.6892C15.2846 19.3419 15.5934 19.052 15.9515 18.8396C16.3095 18.6271 16.7082 18.4973 17.12 18.459C17.5317 18.4207 17.9467 18.4748 18.336 18.6177L20.613 19.4544C21.3714 18.5122 21.9714 17.4464 22.388 16.301L20.5431 14.692C20.2272 14.4172 19.9733 14.0749 19.7992 13.6889C19.6251 13.303 19.5349 12.8827 19.5349 12.4573C19.5349 12.0319 19.6251 11.6117 19.7992 11.2257C19.9733 10.8398 20.2272 10.4975 20.5431 10.2227L22.388 8.6137C21.9714 7.46825 21.3714 6.40242 20.613 5.46024L18.3374 6.2955C17.9481 6.43839 17.5332 6.49256 17.1214 6.45425C16.7097 6.41594 16.311 6.28607 15.9529 6.07363C15.5949 5.86119 15.286 5.57128 15.0478 5.22397C14.8096 4.87667 14.6478 4.48028 14.5735 4.06229L14.1372 1.6166C12.9643 1.41561 11.7671 1.41561 10.5942 1.6166L10.1607 4.06229C10.0866 4.48041 9.92487 4.87696 9.68675 5.22444C9.44863 5.57191 9.13983 5.862 8.78175 6.07459C8.42368 6.28718 8.0249 6.41718 7.61307 6.45558C7.20123 6.49398 6.7862 6.43985 6.39675 6.29696L4.11982 5.46024C3.36136 6.40244 2.76141 7.46826 2.34475 8.6137ZM8.802 12.4573C8.802 11.4857 9.17753 10.5539 9.84598 9.86692C10.5144 9.1799 11.4211 8.79394 12.3664 8.79394C13.3117 8.79394 14.2183 9.1799 14.8868 9.86692C15.5552 10.5539 15.9308 11.4857 15.9308 12.4573C15.9308 13.4289 15.5552 14.3607 14.8868 15.0478C14.2183 15.7348 13.3117 16.1207 12.3664 16.1207C11.4211 16.1207 10.5144 15.7348 9.84598 15.0478C9.17753 14.3607 8.802 13.4289 8.802 12.4573ZM10.2278 12.4573C10.2278 13.0403 10.4531 13.5994 10.8541 14.0116C11.2552 14.4238 11.7992 14.6554 12.3664 14.6554C12.9336 14.6554 13.4776 14.4238 13.8786 14.0116C14.2797 13.5994 14.505 13.0403 14.505 12.4573C14.505 11.8744 14.2797 11.3153 13.8786 10.9031C13.4776 10.4909 12.9336 10.2593 12.3664 10.2593C11.7992 10.2593 11.2552 10.4909 10.8541 10.9031C10.4531 11.3153 10.2278 11.8744 10.2278 12.4573Z" fill="#7C3375"/>
</svg>
