<svg width="32" height="25" viewBox="0 0 32 25" fill="none" xmlns="http://www.w3.org/2000/svg">
<path d="M0.93556 3.848L7.17003 0.104695C7.17205 0.10337 7.17407 0.102574 7.17609 0.101382C7.19072 0.0929617 7.20561 0.0850499 7.22074 0.0776596C7.22831 0.0736838 7.236 0.0695759 7.24382 0.0659977C7.25795 0.0593714 7.27258 0.0540705 7.28721 0.0483719C7.29642 0.0449263 7.3055 0.0409503 7.31483 0.0377697C7.32694 0.0337939 7.33943 0.0306136 7.35179 0.0271679C7.3639 0.0237223 7.37601 0.0200114 7.38811 0.0173609C7.39783 0.0152405 7.40779 0.0137826 7.4175 0.0120597C7.43277 0.00940924 7.44803 0.00649364 7.46329 0.00477082C7.47161 0.00384314 7.48019 0.00344557 7.48851 0.00291547C7.50522 0.00145378 7.52196 0.000569739 7.53872 0.000264905L7.54552 0H11.5817C11.7824 0 11.9749 0.0837745 12.1168 0.232894C12.2587 0.382014 12.3385 0.584264 12.3385 0.795151C12.3385 1.709 12.684 2.58541 13.299 3.2316C13.914 3.87778 14.7481 4.24081 15.6178 4.24081C16.4876 4.24081 17.3217 3.87778 17.9367 3.2316C18.5517 2.58541 18.8972 1.709 18.8972 0.795151C18.8972 0.584264 18.9769 0.382014 19.1189 0.232894C19.2608 0.0837745 19.4533 0 19.654 0H23.6902L23.697 0.000397357C23.7136 0.000397357 23.7303 0.00172267 23.7469 0.00304792C23.7555 0.00371055 23.7641 0.00397559 23.7725 0.00490327C23.7876 0.0066261 23.8028 0.00940917 23.8178 0.0121922C23.8278 0.013915 23.8378 0.0152404 23.8476 0.0174933C23.8597 0.0201438 23.8715 0.0238548 23.8834 0.0271679C23.896 0.0306136 23.9086 0.0337938 23.921 0.0380346C23.93 0.0410827 23.939 0.0449263 23.9481 0.0483719C23.9628 0.0540705 23.9776 0.0596364 23.9919 0.0661302C23.9997 0.0697083 24.0071 0.0739493 24.0148 0.0777925C24.0299 0.0853465 24.0451 0.0929 24.0596 0.101514L24.0656 0.104695L30.3002 3.848C30.6919 4.08348 30.983 4.46753 31.1138 4.92136C31.2445 5.37519 31.205 5.86438 31.0034 6.28859L28.6821 11.1667C28.5364 11.4756 28.3111 11.7355 28.032 11.9168C27.7528 12.098 27.4309 12.1935 27.1027 12.1923H24.4469V23.0594C24.4464 23.5513 24.2602 24.0229 23.9291 24.3707C23.5981 24.7185 23.1493 24.9142 22.6811 24.9147H8.55457C8.0864 24.9142 7.63757 24.7185 7.30653 24.3707C6.97549 24.0229 6.78928 23.5513 6.78875 23.0594V12.1923H4.13296C3.80477 12.1935 3.48284 12.098 3.20368 11.9167C2.92452 11.7354 2.6993 11.4755 2.55356 11.1666L0.232262 6.28859C0.0306377 5.86437 -0.00883293 5.37516 0.121946 4.92133C0.252726 4.4675 0.543839 4.08346 0.93556 3.848ZM27.1027 10.602C27.1496 10.6022 27.1955 10.5886 27.2354 10.5627C27.2753 10.5368 27.3074 10.4997 27.3282 10.4556L29.6498 5.57746C29.6786 5.51684 29.6842 5.44695 29.6655 5.38212C29.6468 5.3173 29.6052 5.26243 29.5493 5.22878L24.4469 2.16533V10.602H27.1027ZM8.3023 23.0594C8.30237 23.1297 8.32897 23.197 8.37626 23.2467C8.42356 23.2964 8.48768 23.3244 8.55457 23.3244H22.6811C22.748 23.3244 22.8121 23.2964 22.8594 23.2467C22.9067 23.197 22.9333 23.1297 22.9334 23.0594V1.5903H20.3511C20.171 2.77315 19.5956 3.84984 18.7281 4.62711C17.8607 5.40438 16.7579 5.83133 15.6178 5.83133C14.4778 5.83133 13.375 5.40438 12.5075 4.62711C11.64 3.84984 11.0646 2.77315 10.8846 1.5903H8.3023V23.0594ZM1.58602 5.57746L3.90743 10.4556C3.92825 10.4997 3.96041 10.5368 4.00027 10.5627C4.04013 10.5886 4.0861 10.6022 4.13296 10.602H6.78875V2.16546L1.68654 5.22878C1.6306 5.26241 1.58902 5.31725 1.57033 5.38205C1.55163 5.44686 1.55725 5.51686 1.58602 5.57746Z" fill="#858282"/>
</svg>
